#!OML:ASF I:\Actors\actors\Patient Classification 2\Patient 1\Session 1\actor1.ASF
:FULLY-SPECIFIED
:DEGREES
273
root -0.724727 18.751 3.83167 7.97132 -3.53454 -1.18874
lowerback 15.3573 1.42778 -2.04155
upperback 3.99117 1.56664 0.25421
thorax -4.42935 0.780735 1.12723
lowerneck 0.712962 -2.00304 0.995818
upperneck 1.86033 -2.70618 2.83792
head 0.475081 -1.33155 0.692387
rclavicle -9.29318e-015 -2.5842e-015
rhumerus 22.8038 20.8385 -33.9439
rradius 134.147
rwrist -47.6002
rhand -5.25413 -52.0561
rfingers 7.12502
rthumb 20.5492 -80.9885
lclavicle -9.29318e-015 -2.5842e-015
lhumerus -48.6767 -10.2413 84.4149
lradius 60.9759
lwrist 5.36673
lhand -7.80568 -30.6118
lfingers 7.12502
lthumb 18.0958 -1.43361
rfemur -7.98753 2.12911 15.0065
rtibia 7.57929
rfoot -14.4008 -11.023
rtoes -6.77437
lfemur -17.1788 -0.426104 -12.682
ltibia 26.5019
lfoot -18.8015 8.91482
ltoes -56.2476
274
root -0.722161 18.7472 3.83255 7.8678 -3.49253 -1.16402
lowerback 15.3916 1.43696 -2.04437
upperback 3.94545 1.57635 0.236542
thorax -4.49607 0.786443 1.1071
lowerneck 0.833595 -2.0573 1.2382
upperneck 1.27858 -2.75676 2.62729
head 0.272137 -1.36559 0.592343
rclavicle 5.66536e-015 -5.26779e-015
rhumerus 22.919 20.4176 -33.9452
rradius 134.17
rwrist -46.6301
rhand -5.43876 -51.6727
rfingers 7.12502
rthumb 20.3718 -80.6242
lclavicle 5.66536e-015 -5.26779e-015
lhumerus -48.792 -10.3565 84.4966
lradius 60.8539
lwrist 5.98119
lhand -8.09636 -30.6258
lfingers 7.12502
lthumb 17.8161 -1.42196
rfemur -8.09097 2.09157 14.9817
rtibia 8.03006
rfoot -14.5938 -10.9006
rtoes -7.02743
lfemur -17.1033 -0.409525 -12.7169
ltibia 26.5618
lfoot -18.8071 8.81124
ltoes -56.2005
275
root -0.718906 18.7436 3.8351 7.73692 -3.42173 -1.1038
lowerback 15.4233 1.42279 -2.05154
upperback 3.87887 1.55432 0.211523
thorax -4.58231 0.776952 1.08754
lowerneck 0.992666 -2.09628 1.28845
upperneck 0.735322 -2.7905 2.58822
head 0.0810996 -1.39134 0.577541
rclavicle 1.13307e-014 -1.48095e-014
rhumerus 23.0095 20.0411 -33.9387
rradius 134.182
rwrist -46.0031
rhand -5.70242 -51.2654
rfingers 7.12502
rthumb 20.1184 -80.2437
lclavicle 1.13307e-014 -1.48095e-014
lhumerus -48.9126 -10.3135 84.4776
lradius 60.7836
lwrist 6.02897
lhand -8.11003 -30.3663
lfingers 7.12502
lthumb 17.803 -1.16117
rfemur -8.17409 2.02124 14.9141
rtibia 8.52657
rfoot -14.7914 -10.7665
rtoes -7.39096
lfemur -16.9964 -0.485358 -12.7904
ltibia 26.6163
lfoot -18.8508 8.74793
ltoes -56.0928
276
root -0.718091 18.7385 3.83678 7.62462 -3.33753 -1.03808
lowerback 15.4038 1.39473 -2.14358
upperback 3.83238 1.50506 0.23764
thorax -4.62211 0.754444 1.17635
lowerneck 0.967541 -2.09 1.08568
upperneck 0.367391 -2.77597 2.80993
head -0.0201973 -1.38974 0.680788
rclavicle 1.93815e-015 -1.13307e-014
rhumerus 23.2333 19.6066 -33.7963
rradius 134.207
rwrist -45.931
rhand -5.93913 -51.104
rfingers 7.12502
rthumb 19.8909 -80.1061
lclavicle 1.93815e-015 -1.13307e-014
lhumerus -48.9376 -10.1022 84.4501
lradius 60.6611
lwrist 6.05005
lhand -8.04765 -30.1888
lfingers 7.12502
lthumb 17.863 -0.989213
rfemur -8.27533 1.93742 14.8538
rtibia 9.00635
rfoot -14.9704 -10.6545
rtoes -7.6973
lfemur -16.9243 -0.520685 -12.8691
ltibia 26.6676
lfoot -18.8374 8.70851
ltoes -56.1585
277
root -0.718725 18.7335 3.83961 7.53703 -3.27814 -1.00237
lowerback 15.3473 1.38807 -2.23717
upperback 3.8023 1.48554 0.279007
thorax -4.62592 0.74619 1.27729
lowerneck 0.815725 -2.08255 0.896572
upperneck 0.0763097 -2.76349 3.01399
head -0.0783839 -1.387 0.774871
rclavicle 2.03257e-014 -1.31198e-014
rhumerus 23.0687 19.2301 -34.1617
rradius 134.237
rwrist -45.6122
rhand -5.92447 -51.0948
rfingers 7.12502
rthumb 19.905 -80.0954
lclavicle 2.03257e-014 -1.31198e-014
lhumerus -48.8483 -9.90956 84.4308
lradius 60.4482
lwrist 5.9621
lhand -8.09028 -30.223
lfingers 7.12502
lthumb 17.822 -1.01964
rfemur -8.37681 1.88213 14.8315
rtibia 9.42743
rfoot -15.118 -10.5723
rtoes -8.06983
lfemur -16.8697 -0.545709 -12.9092
ltibia 26.7248
lfoot -18.8366 8.69213
ltoes -56.278
278
root -0.719292 18.7293 3.84477 7.49196 -3.23658 -0.996613
lowerback 15.2445 1.38535 -2.26577
upperback 3.72573 1.48101 0.2986
thorax -4.65238 0.745384 1.31593
lowerneck 0.776642 -2.08517 0.818145
upperneck -0.261051 -2.7591 3.09435
head -0.172318 -1.38953 0.814888
rclavicle 2.39039e-014 -1.98785e-016
rhumerus 21.8876 19.0503 -35.2485
rradius 134.232
rwrist -44.6625
rhand -5.4235 -50.5526
rfingers 7.12502
rthumb 20.3865 -79.5025
lclavicle 2.39039e-014 -1.98785e-016
lhumerus -48.8461 -9.79292 84.4065
lradius 60.2708
lwrist 5.88457
lhand -8.1632 -30.2737
lfingers 7.12502
lthumb 17.7518 -1.06399
rfemur -8.49631 1.84516 14.838
rtibia 9.8153
rfoot -15.285 -10.4507
rtoes -8.11088
lfemur -16.8496 -0.554543 -12.913
ltibia 26.7888
lfoot -18.855 8.65527
ltoes -56.3431
